<svg width="191" height="81" viewBox="0 0 191 81" fill="none" xmlns="http://www.w3.org/2000/svg">
<path d="M71.7624 72.0148H58.7262L66.5585 45.364H59.9352L49.0541 80.9509H36.0179L57.5697 8.88357H70.606L63.2468 34.1676H69.8701L80.3306 0H93.3669L71.7624 72.0148Z" fill="#E02041"/>
<path d="M94.4182 8.88354H119.282L115.55 20.2377H104.248L100.148 34.115H111.502L107.928 45.3115H96.8362L92.4733 59.9772H104.563L100.2 71.9622H75.81L94.4182 8.88354Z" fill="#E02041"/>
<path d="M115.602 80.9509H102.461L123.434 8.88354H147.299C150.138 8.88354 152.03 9.67203 153.029 11.3016C154.027 12.9311 154.185 14.7709 153.554 16.8735L147.246 38.3202C146.931 39.2664 146.353 40.1075 145.459 40.896C144.566 41.6844 143.304 42.0524 141.675 42.0524C142.673 42.2101 143.514 42.8409 144.198 43.9447C144.881 45.0486 144.881 46.7307 144.198 48.991L137.417 72.0147H124.328L131.582 47.2564C131.74 46.7307 131.792 46.2576 131.635 45.7845C131.477 45.3115 131.004 45.1012 130.215 45.1012H125.852L115.602 80.9509ZM133.054 35.7971C133.685 35.7971 134.263 35.6394 134.841 35.324C135.367 35.0086 135.787 34.3778 136.103 33.3791L139.572 21.657C140.098 19.9223 139.414 19.0287 137.574 19.0287H133.474L128.533 35.7971H133.054Z" fill="#E02041"/>
<path d="M185.619 8.88354C187.669 8.88354 189.141 9.61946 190.088 11.0913C191.034 12.5631 191.244 14.2452 190.718 16.085L176.21 65.3389C175.422 67.9672 174.055 69.7018 172.163 70.648C170.27 71.5942 168.22 72.0147 166.065 72.0147H150.506C149.402 72.0147 148.403 71.8045 147.457 71.4365C146.511 71.0686 145.775 70.4903 145.144 69.7544C144.513 69.0185 144.145 68.0723 143.935 67.021C143.725 65.9697 143.83 64.7607 144.25 63.394L158.496 15.0337C158.969 13.1939 159.915 11.6695 161.334 10.5656C162.753 9.46177 164.541 8.88354 166.696 8.88354H185.619ZM171.952 19.0287C171.322 19.0287 170.849 19.1864 170.586 19.4492C170.27 19.7646 170.113 20.1326 169.955 20.5531L158.338 59.8721C158.023 60.9234 158.443 61.4491 159.547 61.4491H162.911C164.015 61.4491 164.698 60.9234 165.014 59.8721L176.578 20.6057C176.841 19.5018 176.42 18.9761 175.264 18.9761H171.952V19.0287Z" fill="#E02041"/>
<path d="M24.0224 15.7697H32.4855C33.5894 15.7697 34.2727 16.085 34.5881 16.6633C34.9035 17.2415 34.9561 17.9248 34.7458 18.7659L32.7483 25.5994C32.6432 26.0199 32.3804 26.3879 31.9598 26.7033C31.5393 27.0712 30.9085 27.1764 30.12 27.1764C30.5406 27.1764 30.856 27.2815 31.0662 27.4392C31.329 27.5969 31.4867 27.8072 31.5919 28.07C31.697 28.3328 31.7496 28.5956 31.7496 28.911C31.7496 29.2264 31.697 29.5418 31.6444 29.8046L29.7521 36.0599C29.5418 36.7959 29.1213 37.3741 28.5956 37.7946C28.07 38.2151 27.2289 38.4254 26.2302 38.4254H17.3466L24.0224 15.7697ZM24.8635 34.6932C25.0738 34.6932 25.284 34.6407 25.4417 34.5881C25.5994 34.483 25.7571 34.2727 25.8622 33.9573L27.2289 29.3841C27.3341 29.0687 27.3341 28.8585 27.2289 28.6482C27.1238 28.4379 26.9135 28.3854 26.5982 28.3854H25.1263L23.234 34.7458H24.8635V34.6932ZM27.4392 25.3366C27.7546 25.3366 28.0174 25.284 28.1751 25.1789C28.3328 25.0738 28.4905 24.8635 28.5956 24.4955L29.8046 20.3954C29.9098 20.08 29.9098 19.8698 29.8572 19.7121C29.7521 19.5544 29.5418 19.4492 29.2264 19.4492H27.702L25.9674 25.3366H27.4392Z" fill="#41414D"/>
<path d="M37.2688 15.7697H46.2049L44.9959 19.8698H40.7907L39.3188 24.8635H43.4189L42.2099 28.911H38.1098L36.5329 34.1676H40.8958L39.3188 38.478H30.593L37.2688 15.7697Z" fill="#41414D"/>
<path d="M14.5081 42.4202L13.2991 46.5204H10.0926L4.67833 65.076H0L5.51938 46.4678H2.26032L3.46932 42.3677H14.5081V42.4202Z" fill="#41414D"/>
<path d="M20.8686 65.0762H16.1903L18.9763 55.5092H16.6108L13.7723 65.0762H9.09393L15.7698 42.4204H20.4481L17.8198 51.5142H20.1853L22.8661 42.4204H27.5444L20.8686 65.0762Z" fill="#41414D"/>
<path d="M29.0162 42.4204H37.9524L36.7433 46.5205H32.5381L31.0663 51.5142H35.1664L33.9574 55.5618H29.8573L28.2803 60.8183H32.6432L31.0663 65.1287H22.3404L29.0162 42.4204Z" fill="#41414D"/>
</svg>
